<svg xmlns="http://www.w3.org/2000/svg" height="513.542" preserveAspectRatio="none"
    style="width:467px;height:513px;background:#00000000" viewBox="0 0 467 513" width="467.708">
    <defs>
        <filter height="300%" id="prefix__a" width="300%" x="-1" y="-1">
            <feGaussianBlur result="blurOut" stdDeviation="2.083" />
            <feColorMatrix in="blurOut" result="blurOut2" values="0 0 0 0 0 0 0 0 0 0 0 0 0 0 0 0 0 0 .4 0" />
            <feOffset dx="4.167" dy="4.167" in="blurOut2" result="blurOut3" />
            <feBlend in="SourceGraphic" in2="blurOut3" />
        </filter>
    </defs>
    <circle cx="201.375" cy="38.021" fill="#00F" filter="url(#prefix__a)" stroke="#2196f3" stroke-width="1.042"
        r="8.333" />
    <path d="M201.375 46.354V74.48m-13.542-19.791h27.084m-13.542 19.791l-13.542 15.625m13.542-15.625l13.542 15.625"
        fill="none" filter="url(#prefix__a)" stroke="#2196f3" stroke-width="1.042" /><text fill="#2196F3"
        font-family="&quot;Verdana&quot;" font-size="12.5" textLength="37.5" x="171.167" y="123.094">Users</text>
    <path
        d="M230.542 120.883c-.218-.501-.467-1.045-1.042-1.045h-.52c.574 0 1.04-.469 1.04-1.046V109.9c0-.578-.466-1.046-1.04-1.046h-13.542c-.575 0-1.042.468-1.042 1.046v8.892c0 .577.467 1.046 1.042 1.046h-.521c-.575 0-.869.522-1.042 1.045l-1.042 2.55c0 .578.467 1.046 1.042 1.046h16.667c.575 0 1.041-.468 1.041-1.046l-1.041-2.55"
        fill="#CCD6DD" />
    <path d="M212.838 123.477l.003.03.088.36c.165.36.525.612.946.612h16.667c.56 0 1.014-.445 1.037-1.002h-18.742"
        fill="#9AAAB4" />
    <path
        d="M228.98 118.268c0 .29-.234.523-.522.523h-12.5a.522.522 0 01-.52-.523v-7.845c0-.289.233-.523.52-.523h12.5c.288 0 .521.235.521.523v7.845"
        fill="#5DADEC" />
    <path
        d="M229.972 121.897l-.396-1.133c-.124-.24-.33-.436-.619-.436h-13.462c-.288 0-.472.213-.602.54l-.359 1.03c-.114.31.234.522.521.522h3.947c.488-.024.488-.024.575-.316.1-.338.216-.846.24-.936.04-.137.203-.276.446-.276h4.468c.26 0 .389.131.423.294.022.107.162.595.228.929.058.297.636.305.636.305h3.434c.287 0 .634-.246.52-.523"
        fill="#AEBBC1" />
    <path
        d="M224.487 122.975h-4.053c-.195 0-.28-.178-.252-.351.028-.172.187-.934.2-1.022.012-.09.142-.196.273-.196h3.653c.155 0 .256.085.287.255.03.17.157.855.167 1.01.01.158-.088.304-.275.304"
        fill="#9AAAB4" />
    <circle cx="102.417" cy="420.833" fill="red" filter="url(#prefix__a)" stroke="#2196f3" stroke-width="1.042"
        r="8.333" />
    <path d="M102.417 429.167v28.125M88.875 437.5h27.083m-13.541 19.792l-13.542 15.625m13.542-15.625l13.541 15.625"
        fill="none" filter="url(#prefix__a)" stroke="#2196f3" stroke-width="1.042" /><text fill="#2196F3"
        font-family="&quot;Verdana&quot;" font-size="12.5" textLength="27.083" x="88.875" y="500.144">ISPs</text>
    <circle cx="299.292" cy="420.833" fill="green" filter="url(#prefix__a)" stroke="#2196f3" stroke-width="1.042"
        r="8.333" />
    <path d="M299.292 429.167v28.125M285.75 437.5h27.083m-13.541 19.792l-13.542 15.625m13.542-15.625l13.541 15.625"
        fill="none" filter="url(#prefix__a)" stroke="#2196f3" stroke-width="1.042" /><text fill="#2196F3"
        font-family="&quot;Verdana&quot;" font-size="12.5" textLength="32.292" x="283.146" y="500.144">ASPs</text>
    <g>
        <path
            d="M124.813 254.167h153.125c5.208 0 5.208 25.78 5.208 25.78s0 25.782-5.209 25.782H124.813c-5.208 0-5.208-25.781-5.208-25.781s0-25.781 5.209-25.781"
            fill="none" filter="url(#prefix__a)" stroke="#2196f3" stroke-width="1.042" />
        <path d="M277.938 254.167c-5.209 0-5.209 25.78-5.209 25.78 0 25.782 5.209 25.782 5.209 25.782" fill="none"
            stroke="#2196f3" stroke-width="1.042" /><text fill="#2196F3" font-family="&quot;Verdana&quot;"
            font-size="12.5" textLength="98.958" x="135.229" y="287.156">Smart Contract</text>
        <path
            d="M255.02 269.792h-11.458c-1.15 0-2.083.933-2.083 2.083v12.5h-1.042a2.083 2.083 0 000 4.167h12.5c1.151 0 2.084-.933 2.084-2.084v-12.5a2.083 2.083 0 000-4.166"
            fill="#FFD983" />
        <path d="M242.52 275h12.5v-1.042h-11.458l-1.041-.52" fill="#E39F3D" />
        <path
            d="M243.563 269.792c-1.151 0-2.084.933-2.084 2.083v12.79a2.06 2.06 0 00-1.042-.29 2.083 2.083 0 102.084 2.083V273.67c.307.18.66.29 1.042.29a2.083 2.083 0 000-4.167"
            fill="#FFE8B6" />
        <path
            d="M244.604 271.875a1.042 1.042 0 11-2.084 0 1.042 1.042 0 012.084 0m-3.125 14.583a1.042 1.042 0 11-2.084 0 1.042 1.042 0 012.084 0m12.5-8.854a.52.52 0 01-.52.521h-9.376a.521.521 0 010-1.042h9.375a.52.52 0 01.521.521m0 2.084a.52.52 0 01-.52.52h-9.376a.52.52 0 110-1.041h9.375a.52.52 0 01.521.52m0 2.084a.52.52 0 01-.52.52h-9.376a.52.52 0 110-1.041h9.375a.52.52 0 01.521.52m0 2.084a.52.52 0 01-.52.521h-9.376a.52.52 0 110-1.042h9.375a.52.52 0 01.521.521"
            fill="#C1694F" />
    </g>
    <g>
        <path
            d="M278.458 20.833v124.48a4.167 4.167 0 004.167 4.166h168.75a4.167 4.167 0 004.167-4.167V27.084l-10.417-10.416h-162.5a4.167 4.167 0 00-4.167 4.166"
            fill="none" filter="url(#prefix__a)" stroke="#1a78c2" stroke-width="1.042" />
        <path d="M445.125 16.667V25a2.083 2.083 0 002.083 2.083h8.334l-10.417-10.416" fill="none" stroke="#1a78c2"
            stroke-width="1.042" />
        <path
            d="M313.875 48.958c0 1.15-.933 2.084-2.083 2.084h-14.584a2.083 2.083 0 01-2.083-2.084v-4.687c0-1.15.412-1.563 1.563-1.563h15.625c1.15 0 1.562.412 1.562 1.563v4.687"
            fill="#D99E82" />
        <path d="M308.146 42.708a3.646 3.646 0 11-7.292 0h7.292" fill="#662113" />
        <path d="M297.208 51.042h14.584c1.15 0 2.083-.933 2.083-2.084h-18.75c0 1.15.933 2.084 2.083 2.084"
            fill="#C1694F" />
        <path
            d="M309.414 36.724l-4.095-4.095a1.161 1.161 0 00-1.638 0l-4.096 4.096c-.45.45-.297.775.34.775h2.492v3.125c0 .575.466 1.042 1.041 1.042h2.084c.575 0 1.041-.467 1.041-1.042V37.5h2.492c.637 0 .79-.325.34-.776"
            fill="#DD2E44" /><text fill="#9C27B0" font-family="&quot;Verdana&quot;" font-size="12.5" textLength="97.917"
            x="313.875" y="49.656">: Upload model</text>
        <path
            d="M313.875 69.27c0 1.151-.933 2.084-2.083 2.084h-14.584a2.083 2.083 0 01-2.083-2.083v-4.688c0-1.15.412-1.562 1.563-1.562h15.625c1.15 0 1.562.412 1.562 1.562v4.688"
            fill="#D99E82" />
        <path d="M308.146 63.02a3.646 3.646 0 11-7.292 0h7.292" fill="#662113" />
        <path d="M297.208 71.354h14.584c1.15 0 2.083-.933 2.083-2.083h-18.75c0 1.15.933 2.083 2.083 2.083"
            fill="#C1694F" />
        <path
            d="M309.04 56.77h-2.492v-3.124c0-.576-.466-1.042-1.041-1.042h-2.084c-.575 0-1.041.467-1.041 1.042v3.125h-2.492c-.637 0-.79.324-.34.775l4.096 4.096c.45.45 1.187.45 1.638 0l4.096-4.096c.45-.45.297-.775-.34-.775"
            fill="#77B255" /><text fill="#9C27B0" font-family="&quot;Verdana&quot;" font-size="12.5"
            textLength="115.625" x="313.875" y="69.969">: Download model</text>
        <path
            d="M313.41 90.194l-16.812-16.812c-.81-.81-1.473-.536-1.473.61v15.591a2.09 2.09 0 002.083 2.084H312.8c1.146 0 1.42-.663.61-1.473m-9.447-2.694h-3.629a1.045 1.045 0 01-1.041-1.042V82.83c0-.573.331-.71.736-.305l4.24 4.24c.404.404.266.736-.306.736"
            fill="#FFCC4D" /><text fill="#9C27B0" font-family="&quot;Verdana&quot;" font-size="12.5"
            textLength="108.333" x="313.875" y="90.281">: Evaluate model</text>
        <path
            d="M313.331 102.56c0-.262-.062-.507-.167-.73-.698-2.254-3.968-2.09-8.62-2.2-.777-.017-.332-.936-.06-2.951.179-1.311-.667-3.324-2.088-3.324-2.342 0-.089 1.848-2.16 6.417-1.107 2.442-3.58 1.074-3.58 3.527v5.583c0 .954.093 1.872 1.436 2.023 1.301.147 1.009 1.074 2.886 1.074h9.398c.957 0 1.736-.779 1.736-1.736 0-.397-.14-.759-.364-1.051.532-.298.896-.86.896-1.51a1.72 1.72 0 00-.362-1.05 1.73 1.73 0 00.898-1.51 1.73 1.73 0 00-.5-1.217c.394-.319.651-.8.651-1.345"
            fill="#FFDB5E" />
        <path
            d="M307.115 104.296h4.48c.61 0 1.182-.326 1.493-.85a.456.456 0 00-.784-.465.827.827 0 01-.709.404h-4.588a.825.825 0 010-1.65h3.066a.456.456 0 000-.91h-3.067c-.957 0-1.736.778-1.736 1.735 0 .534.248 1.007.628 1.325a1.73 1.73 0 00-.52 1.236c0 .536.25 1.01.631 1.328a1.727 1.727 0 00.219 2.646 1.722 1.722 0 00-.444 1.148c0 .957.779 1.736 1.736 1.736h2.856c.61 0 1.182-.326 1.493-.85a.456.456 0 00-.783-.466.83.83 0 01-.71.404h-2.856a.825.825 0 010-1.649h3.388c.61 0 1.183-.326 1.494-.85a.456.456 0 10-.784-.466.819.819 0 01-.71.405h-3.678a.826.826 0 010-1.65h4.214c.61 0 1.181-.325 1.493-.85a.456.456 0 00-.783-.465.82.82 0 01-.71.404h-4.33a.825.825 0 010-1.65"
            fill="#EE9547" /><text fill="#9C27B0" font-family="&quot;Verdana&quot;" font-size="12.5" textLength="54.167"
            x="313.875" y="110.594">: Upvote</text>
        <path
            d="M313.331 122.96c0 .262-.062.508-.167.732-.698 2.253-3.968 2.088-8.62 2.198-.777.018-.332.937-.06 2.952.179 1.311-.667 3.324-2.088 3.324-2.342 0-.089-1.848-2.16-6.418-1.107-2.441-3.58-1.074-3.58-3.526v-5.582c0-.955.093-1.873 1.436-2.024 1.301-.147 1.009-1.074 2.886-1.074h9.398c.957 0 1.736.779 1.736 1.736 0 .397-.14.758-.364 1.051.532.298.896.859.896 1.51 0 .396-.138.757-.362 1.05.533.296.898.858.898 1.51 0 .474-.192.903-.5 1.217.394.318.651.8.651 1.344"
            fill="#FFDB5E" />
        <path
            d="M307.115 121.225h4.48c.61 0 1.182.326 1.493.85a.456.456 0 01-.784.465.827.827 0 00-.709-.404h-4.588a.825.825 0 000 1.649h3.066a.456.456 0 010 .911h-3.067a1.738 1.738 0 01-1.736-1.736c0-.533.248-1.006.628-1.325a1.73 1.73 0 01-.52-1.236c0-.535.25-1.009.631-1.327a1.728 1.728 0 01.219-2.646 1.721 1.721 0 01-.444-1.148c0-.957.779-1.736 1.736-1.736h2.856c.61 0 1.182.326 1.493.85a.456.456 0 01-.783.466.83.83 0 00-.71-.404h-2.856a.825.825 0 000 1.649h3.388c.61 0 1.183.326 1.494.85a.456.456 0 11-.784.466.819.819 0 00-.71-.405h-3.678a.826.826 0 000 1.65h4.214c.61 0 1.181.325 1.493.85a.456.456 0 01-.783.465.82.82 0 00-.71-.404h-4.33a.825.825 0 000 1.65"
            fill="#EE9547" /><text fill="#9C27B0" font-family="&quot;Verdana&quot;" font-size="12.5" textLength="71.875"
            x="313.875" y="130.906">: Downvote</text>
    </g>
    <g>
        <path d="M201.375 137.23v108.228" fill="none" stroke="#2196f3" stroke-width="3.125" stroke-dasharray="7 7" />
        <path fill="#2196F3" stroke="#2196f3" stroke-width="3.125"
            d="M201.375 253.833l3.125-8.333h-6.25l3.125 8.333z" /><text fill="#222" font-family="&quot;Verdana&quot;"
            font-size="12.5" textLength="18.75" x="212.833" y="209.031">[1]</text>
        <path
            d="M254.5 208.333c0 1.15-.933 2.084-2.083 2.084h-14.584a2.083 2.083 0 01-2.083-2.084v-4.687c0-1.15.412-1.563 1.563-1.563h15.625c1.15 0 1.562.412 1.562 1.563v4.687"
            fill="#D99E82" />
        <path d="M248.77 202.083a3.646 3.646 0 11-7.29 0h7.29" fill="#662113" />
        <path d="M237.833 210.417h14.584c1.15 0 2.083-.933 2.083-2.084h-18.75c0 1.15.933 2.084 2.083 2.084"
            fill="#C1694F" />
        <path
            d="M250.04 196.1l-4.096-4.096a1.161 1.161 0 00-1.638 0l-4.096 4.096c-.45.45-.297.775.34.775h2.492V200c0 .575.466 1.042 1.041 1.042h2.084c.575 0 1.041-.467 1.041-1.042v-3.125h2.492c.637 0 .79-.325.34-.775"
            fill="#DD2E44" />
    </g>
    <g>
        <path d="M119.563 289.688C89.124 297.25 57.49 311.353 38.874 337.5c-22.208 31.188 7.354 71.208 33.146 97.208"
            fill="none" stroke="#2196f3" stroke-width="3.125" stroke-dasharray="7 7" />
        <path fill="#2196F3" stroke="#2196f3" stroke-width="3.125"
            d="M78.115 440.677l-3.785-8.055-4.364 4.475 8.149 3.58z" /><text fill="#222"
            font-family="&quot;Verdana&quot;" font-size="12.5" textLength="18.75" x="50.333" y="366.323">[2]</text>
        <path
            d="M92 365.625c0 1.15-.933 2.083-2.083 2.083H75.333a2.083 2.083 0 01-2.083-2.083v-4.688c0-1.15.412-1.562 1.563-1.562h15.624c1.151 0 1.563.412 1.563 1.563v4.687"
            fill="#D99E82" />
        <path d="M86.27 359.375a3.646 3.646 0 01-7.29 0h7.29" fill="#662113" />
        <path d="M75.333 367.708h14.584c1.15 0 2.083-.933 2.083-2.083H73.25c0 1.15.933 2.083 2.083 2.083"
            fill="#C1694F" />
        <path
            d="M87.165 353.125h-2.492V350c0-.575-.466-1.042-1.041-1.042h-2.084c-.575 0-1.041.467-1.041 1.042v3.125h-2.492c-.637 0-.79.325-.34.776l4.096 4.095c.45.45 1.187.45 1.638 0l4.096-4.095c.45-.452.297-.776-.34-.776"
            fill="#77B255" />
    </g>
    <g>
        <path d="M121.531 411.219c9.604-23.104 22.167-50.48 36.094-73.719 4.917-8.208 10.854-16.583 16.75-24.292"
            fill="none" stroke="red" stroke-width="3.125" />
        <path fill="red" stroke="red" stroke-width="3.125" d="M179.75 306.354l-7.602 4.627 4.917 3.858 2.685-8.485z" />
        <text fill="#222" font-family="&quot;Verdana&quot;" font-size="12.5" textLength="18.75" x="169.083"
            y="366.323">[4]</text>
        <path
            d="M210.206 358.377c0 .262-.062.508-.167.731-.698 2.253-3.968 2.089-8.62 2.199-.777.018-.332.936-.06 2.952.178 1.31-.667 3.324-2.088 3.324-2.342 0-.089-1.848-2.16-6.418-1.107-2.442-3.58-1.074-3.58-3.526v-5.583c0-.954.093-1.872 1.436-2.023 1.301-.147 1.008-1.075 2.886-1.075h9.398c.957 0 1.736.78 1.736 1.737 0 .397-.14.758-.364 1.05.532.298.896.86.896 1.51 0 .397-.138.758-.362 1.05.533.297.898.86.898 1.511 0 .474-.192.903-.5 1.217.394.318.651.8.651 1.344"
            fill="#FFDB5E" />
        <path
            d="M203.99 356.641h4.48c.61 0 1.182.326 1.494.85a.456.456 0 01-.785.465.827.827 0 00-.709-.403h-4.588a.825.825 0 000 1.649h3.066a.456.456 0 010 .911h-3.067a1.738 1.738 0 01-1.736-1.736c0-.534.248-1.006.628-1.325a1.73 1.73 0 01-.52-1.236c0-.535.25-1.01.631-1.327a1.727 1.727 0 01.219-2.646 1.722 1.722 0 01-.444-1.148c0-.957.779-1.736 1.736-1.736h2.856c.61 0 1.182.325 1.493.85a.456.456 0 01-.783.465.83.83 0 00-.71-.404h-2.856a.825.825 0 000 1.65h3.388c.61 0 1.183.325 1.494.85a.456.456 0 11-.784.465.819.819 0 00-.71-.404h-3.678a.826.826 0 000 1.65h4.214c.61 0 1.181.325 1.493.85a.456.456 0 01-.783.465.82.82 0 00-.71-.404h-4.33a.825.825 0 000 1.65"
            fill="#EE9547" />
    </g>
    <g>
        <path d="M213.469 306.292c9.854 20.146 24.333 49.093 37.906 73.916 5.323 9.73 11.177 20 16.917 29.844"
            fill="none" stroke="#2196f3" stroke-width="3.125" stroke-dasharray="7 7" />
        <path fill="#2196F3" stroke="#2196f3" stroke-width="3.125"
            d="M272.656 417.479l-1.53-8.767-5.387 3.168 6.917 5.599z" /><text fill="#222"
            font-family="&quot;Verdana&quot;" font-size="12.5" textLength="18.75" x="262.833" y="366.323">[2]</text>
        <path
            d="M304.5 365.625c0 1.15-.933 2.083-2.083 2.083h-14.584a2.083 2.083 0 01-2.083-2.083v-4.688c0-1.15.412-1.562 1.563-1.562h15.625c1.15 0 1.562.412 1.562 1.563v4.687"
            fill="#D99E82" />
        <path d="M298.77 359.375a3.646 3.646 0 01-7.29 0h7.29" fill="#662113" />
        <path d="M287.833 367.708h14.584c1.15 0 2.083-.933 2.083-2.083h-18.75c0 1.15.933 2.083 2.083 2.083"
            fill="#C1694F" />
        <path
            d="M299.665 353.125h-2.492V350c0-.575-.466-1.042-1.041-1.042h-2.084c-.575 0-1.041.467-1.041 1.042v3.125h-2.492c-.637 0-.79.325-.34.776l4.096 4.095c.45.45 1.187.45 1.638 0l4.096-4.095c.45-.452.297-.776-.34-.776"
            fill="#77B255" />
    </g>
    <g>
        <path d="M322.927 411.198c7.615-23.906 10.969-51.938-2.802-73.698-7.323-11.573-17.75-20.813-29.406-28.177"
            fill="none" stroke="green" stroke-width="3.125" />
        <path fill="green" stroke="green" stroke-width="3.125"
            d="M283.313 304.979l5.599 6.918 3.168-5.388-8.767-1.53z" /><text fill="#222"
            font-family="&quot;Verdana&quot;" font-size="12.5" textLength="18.75" x="340.958" y="366.323">[4]</text>
        <path
            d="M382.081 358.29c0-.262-.062-.508-.167-.732-.698-2.253-3.968-2.088-8.62-2.198-.777-.018-.332-.937-.06-2.952.179-1.311-.667-3.324-2.088-3.324-2.342 0-.089 1.848-2.16 6.418-1.107 2.441-3.58 1.073-3.58 3.526v5.583c0 .955.093 1.872 1.436 2.023 1.301.147 1.009 1.074 2.886 1.074h9.398c.957 0 1.736-.779 1.736-1.736 0-.397-.14-.758-.364-1.051.532-.298.896-.859.896-1.51a1.72 1.72 0 00-.362-1.05 1.73 1.73 0 00.898-1.51 1.73 1.73 0 00-.5-1.217c.394-.318.651-.8.651-1.344"
            fill="#FFDB5E" />
        <path
            d="M375.865 360.026h4.48c.61 0 1.182-.327 1.493-.851a.456.456 0 00-.784-.465.827.827 0 01-.709.404h-4.588a.825.825 0 010-1.649h3.066a.456.456 0 000-.911h-3.067c-.957 0-1.736.778-1.736 1.736 0 .533.248 1.006.628 1.325a1.73 1.73 0 00-.52 1.236c0 .535.25 1.009.631 1.327a1.728 1.728 0 00.219 2.646 1.721 1.721 0 00-.444 1.148c0 .957.779 1.736 1.736 1.736h2.856c.61 0 1.182-.326 1.493-.85a.456.456 0 00-.783-.466.83.83 0 01-.71.404h-2.856a.825.825 0 010-1.649h3.388c.61 0 1.183-.326 1.494-.85a.456.456 0 10-.784-.466.819.819 0 01-.71.405h-3.678a.826.826 0 010-1.65h4.214c.61 0 1.181-.325 1.493-.85a.456.456 0 00-.783-.465.82.82 0 01-.71.404h-4.33a.825.825 0 010-1.65"
            fill="#EE9547" />
    </g>
    <g>
        <path d="M126.615 445.625c18.03-5.896 36.218-.27 36.218 16.875 0 14.469-12.948 20.73-27.823 18.802" fill="none"
            stroke="#b8860b" stroke-width="3.125" stroke-dasharray="1 3" />
        <path fill="#B8860B" stroke="#b8860b" stroke-width="3.125"
            d="M126.615 479.375l7.425 4.906 1.395-6.093-8.82 1.187z" /><text fill="#222"
            font-family="&quot;Verdana&quot;" font-size="12.5" textLength="18.75" x="179.5" y="469.969">[3]</text>
        <path
            d="M220.701 469.881L203.89 453.07c-.81-.81-1.473-.536-1.473.61v15.59a2.09 2.09 0 002.083 2.084h15.591c1.146 0 1.42-.662.61-1.473m-9.447-2.693h-3.629a1.045 1.045 0 01-1.042-1.042v-3.63c0-.572.332-.71.737-.305l4.239 4.24c.405.405.267.736-.305.736"
            fill="#FFCC4D" />
    </g>
    <g>
        <path d="M326.167 445.135c18.26-5.072 36.146.72 36.146 17.365 0 14.052-12.73 20.365-27.678 18.948" fill="none"
            stroke="#b8860b" stroke-width="3.125" stroke-dasharray="1 3" />
        <path fill="#B8860B" stroke="#b8860b" stroke-width="3.125"
            d="M326.167 479.865l7.615 4.605 1.151-6.143-8.766 1.538z" /><text fill="#222"
            font-family="&quot;Verdana&quot;" font-size="12.5" textLength="18.75" x="378.979" y="469.969">[3]</text>
        <path
            d="M420.18 469.881L403.37 453.07c-.81-.81-1.473-.536-1.473.61v15.59a2.09 2.09 0 002.083 2.084h15.591c1.146 0 1.42-.662.61-1.473m-9.447-2.693h-3.629a1.045 1.045 0 01-1.041-1.042v-3.63c0-.572.331-.71.736-.305l4.239 4.24c.405.405.267.736-.305.736"
            fill="#FFCC4D" />
    </g>
</svg>